<svg width="24" height="25" viewBox="0 0 24 25" fill="none" xmlns="http://www.w3.org/2000/svg">
<g id="solar:bag-bold-duotone">
<g id="Group">
<path id="Vector" opacity="0.5" d="M7.69353 6.49626C7.92096 5.28397 8.03442 4.67731 8.46597 4.3188C8.89804 3.96082 9.51455 3.96082 10.7486 3.96082H12.8416C14.0762 3.96082 14.6927 3.96082 15.1248 4.3188C15.5563 4.67731 15.6698 5.28345 15.8972 6.49626L16.2858 8.56855C16.6054 10.274 16.7655 11.1268 16.2992 11.6884C15.833 12.25 14.9657 12.25 13.2307 12.25H10.36C8.62502 12.25 7.75725 12.25 7.2915 11.6884C6.82524 11.1268 6.98532 10.274 7.30497 8.56855L7.69353 6.49626Z" fill="#FEC51B"/>
<path id="Vector_2" d="M10.6294 3.44277C10.6294 3.13362 10.7522 2.83713 10.9708 2.61852C11.1894 2.39992 11.4859 2.27711 11.7951 2.27711C12.1042 2.27711 12.4007 2.39992 12.6193 2.61852C12.8379 2.83713 12.9607 3.13362 12.9607 3.44277V3.96084C13.254 3.96084 13.5109 3.96188 13.7378 3.96861V3.44277C13.7378 2.92752 13.5332 2.43336 13.1688 2.06902C12.8045 1.70468 12.3103 1.5 11.7951 1.5C11.2798 1.5 10.7857 1.70468 10.4213 2.06902C10.057 2.43336 9.85229 2.92752 9.85229 3.44277V3.96861C10.0792 3.96188 10.3362 3.96084 10.6294 3.96084V3.44277Z" fill="#FEC51B"/>
</g>
</g>
</svg>
