<svg width="96" height="96" viewBox="0 0 96 96" fill="none" xmlns="http://www.w3.org/2000/svg">
<circle cx="48.1152" cy="47.5288" r="47.5288" fill="black"/>
<path d="M66.8519 47.6012H29.5663C28.4253 47.6012 27.3311 47.9668 26.5242 48.6175C25.7174 49.2682 25.2642 50.1508 25.2642 51.0711C25.2642 51.9913 25.7174 52.8739 26.5242 53.5246C27.3311 54.1754 28.4253 54.541 29.5663 54.541H66.8519C67.9929 54.541 69.0872 54.1754 69.894 53.5246C70.7008 52.8739 71.154 51.9913 71.154 51.0711C71.154 50.1508 70.7008 49.2682 69.894 48.6175C69.0872 47.9668 67.9929 47.6012 66.8519 47.6012ZM68.2859 56.8542H28.1323C27.7519 56.8542 27.3872 56.9761 27.1182 57.193C26.8493 57.4099 26.6982 57.7041 26.6982 58.0108V59.1674C26.6982 60.3945 27.3026 61.5712 28.3783 62.4389C29.4541 63.3065 30.9131 63.794 32.4345 63.794H63.9837C65.5051 63.794 66.9641 63.3065 68.0399 62.4389C69.1156 61.5712 69.72 60.3945 69.72 59.1674V58.0108C69.72 57.7041 69.5689 57.4099 69.3 57.193C69.031 56.9761 68.6663 56.8542 68.2859 56.8542ZM30.52 45.2879H65.8982C68.9967 45.2879 70.7937 42.1145 69.0191 39.8027C65.4178 35.1096 57.4902 31.4157 48.2091 31.4084C38.9289 31.4157 31.0004 35.1096 27.3991 39.8019C25.6227 42.1137 27.4215 45.2879 30.52 45.2879ZM59.6816 37.1916C59.9652 37.1916 60.2425 37.2594 60.4783 37.3865C60.7141 37.5136 60.8979 37.6942 61.0065 37.9056C61.115 38.1169 61.1434 38.3495 61.0881 38.5738C61.0327 38.7982 60.8962 39.0043 60.6956 39.1661C60.4951 39.3278 60.2395 39.438 59.9613 39.4826C59.6832 39.5272 59.3948 39.5043 59.1328 39.4168C58.8707 39.3292 58.6468 39.181 58.4892 38.9908C58.3316 38.8006 58.2475 38.577 58.2475 38.3482C58.2475 38.0414 58.3986 37.7473 58.6675 37.5303C58.9365 37.3134 59.3012 37.1916 59.6816 37.1916ZM48.2091 34.8783C48.4927 34.8783 48.77 34.9462 49.0058 35.0732C49.2417 35.2003 49.4255 35.381 49.534 35.5923C49.6425 35.8037 49.6709 36.0362 49.6156 36.2606C49.5603 36.485 49.4237 36.691 49.2231 36.8528C49.0226 37.0146 48.7671 37.1247 48.4889 37.1693C48.2107 37.214 47.9224 37.1911 47.6603 37.1035C47.3983 37.016 47.1743 36.8677 47.0167 36.6775C46.8591 36.4873 46.775 36.2637 46.775 36.0349C46.775 35.7282 46.9261 35.434 47.1951 35.2171C47.464 35.0002 47.8288 34.8783 48.2091 34.8783ZM36.7366 37.1916C37.0203 37.1916 37.2975 37.2594 37.5334 37.3865C37.7692 37.5136 37.953 37.6942 38.0615 37.9056C38.1701 38.1169 38.1985 38.3495 38.1431 38.5738C38.0878 38.7982 37.9512 39.0043 37.7507 39.1661C37.5501 39.3278 37.2946 39.438 37.0164 39.4826C36.7382 39.5272 36.4499 39.5043 36.1878 39.4168C35.9258 39.3292 35.7018 39.181 35.5443 38.9908C35.3867 38.8006 35.3026 38.577 35.3026 38.3482C35.3026 38.0414 35.4537 37.7473 35.7226 37.5303C35.9915 37.3134 36.3563 37.1916 36.7366 37.1916Z" fill="#E7A41F"/>
</svg>
