<svg width="96" height="96" viewBox="0 0 96 96" fill="none" xmlns="http://www.w3.org/2000/svg">
<circle cx="47.5864" cy="47.5288" r="47.5288" fill="black"/>
<g clip-path="url(#clip0_1211_568)">
<path d="M60.3659 37.9539H50.6386V33.3175L59.3659 28.1357C60.3962 27.4691 60.6689 26.56 60.1841 25.4085C60.0023 24.9236 59.6235 24.6206 59.0477 24.4994C58.472 24.3782 57.9417 24.4085 57.4568 24.5903L46.8204 31.0448V37.9539H37.0932C36.0629 37.9539 35.1538 38.3478 34.3659 39.1357C33.578 39.9236 33.1841 40.8327 33.1841 41.863V47.6812H35.5477L39.0023 67.4994C39.0629 68.4691 39.4871 69.2872 40.275 69.9539C41.0629 70.6206 41.9417 70.9539 42.9114 70.9539H54.9114C55.8811 70.9539 56.7295 70.6509 57.4568 70.0448C58.1841 69.4388 58.6386 68.6509 58.8204 67.6812L61.9114 47.6812H64.275V41.863C64.275 40.8327 63.8811 39.9236 63.0932 39.1357C62.3053 38.3478 61.3962 37.9539 60.3659 37.9539ZM41.0023 43.7721V41.863H44.8204V43.7721H41.0023ZM46.8204 41.863H50.6386V43.7721H46.8204V41.863ZM52.6386 41.863H56.4568V43.7721H52.6386V41.863ZM60.3659 43.7721H58.4568V41.863H60.3659V43.7721ZM37.0932 41.863H39.0023V43.7721H37.0932V41.863ZM54.9114 67.0448L42.9114 66.863L39.4568 47.6812H58.0023L54.9114 67.0448Z" fill="#E7A41F"/>
</g>
<defs>
<clipPath id="clip0_1211_568">
<rect width="32" height="46.5455" fill="white" transform="translate(32.7295 24.4084)"/>
</clipPath>
</defs>
</svg>
