<svg width="96" height="96" viewBox="0 0 96 96" fill="none" xmlns="http://www.w3.org/2000/svg">
<circle cx="47.644" cy="47.5288" r="47.5288" fill="#E7A41F"/>
<g clip-path="url(#clip0_1211_579)">
<path d="M51.3902 37.1388V34.4464C51.3902 34.0894 51.2483 33.747 50.9959 33.4945C50.7434 33.2421 50.401 33.1002 50.044 33.1002C49.687 33.1002 49.3446 33.2421 49.0921 33.4945C48.8396 33.747 48.6978 34.0894 48.6978 34.4464V48.5813H49.8286C50.3885 48.5808 50.9344 48.4057 51.3902 48.0805V37.1388ZM55.6441 43.8696C55.0841 43.8701 54.5383 44.0452 54.0825 44.3704V43.8696H56.7749V37.1388C56.7749 36.7817 56.633 36.4393 56.3806 36.1869C56.1281 35.9344 55.7857 35.7926 55.4287 35.7926C55.0717 35.7926 54.7293 35.9344 54.4768 36.1869C54.2243 36.4393 54.0825 36.7817 54.0825 37.1388V43.8696H55.6441ZM58.7941 43.8696C59.3686 43.8697 59.9361 43.9963 60.456 44.2406C60.976 44.4848 61.4358 44.8407 61.8026 45.2828C62.1694 45.725 62.4343 46.2425 62.5784 46.7987C62.7224 47.3548 62.7421 47.9359 62.6361 48.5005L60.0838 62.113C59.9104 63.0389 59.4189 63.8751 58.6942 64.4769C57.9695 65.0787 57.0572 65.4082 56.1152 65.4084H38.588C37.6461 65.4082 36.7338 65.0787 36.0091 64.4769C35.2844 63.8751 34.7928 63.0389 34.6195 62.113L32.0672 48.5005C31.9611 47.9359 31.9808 47.3548 32.1249 46.7987C32.269 46.2425 32.5338 45.725 32.9006 45.2828C33.2675 44.8407 33.7272 44.4848 34.2472 44.2406C34.7672 43.9963 35.3347 43.8697 35.9092 43.8696H35.2361V37.1388C35.2362 36.1607 35.5913 35.2159 36.2353 34.4799C36.8794 33.7438 37.7687 33.2665 38.7381 33.1366C39.7075 33.0067 40.6911 33.2329 41.5062 33.7734C42.3214 34.3139 42.9127 35.1318 43.1704 36.0753C44.0777 35.7143 45.0852 35.6952 46.0055 36.0214V34.4464C46.0056 33.4684 46.3607 32.5236 47.0047 31.7875C47.6488 31.0515 48.5381 30.5742 49.5075 30.4443C50.4769 30.3143 51.4605 30.5406 52.2756 31.0811C53.0908 31.6215 53.6821 32.4394 53.9398 33.3829C54.5525 33.1399 55.2154 33.0506 55.8705 33.1227C56.5257 33.1948 57.1533 33.4262 57.6984 33.7966C58.2436 34.1671 58.6898 34.6653 58.9981 35.2479C59.3065 35.8305 59.4675 36.4796 59.4672 37.1388V43.8696H58.7941ZM54.0314 49.2543C53.5269 49.8844 52.8873 50.3929 52.1599 50.7425C51.4324 51.092 50.6357 51.2735 49.8286 51.2736H44.8747C44.0681 51.2731 43.2719 51.0914 42.5449 50.7419C41.8179 50.3924 41.1787 49.884 40.6746 49.2543H40.6208V49.1897C40.4662 48.9898 40.3258 48.7793 40.2008 48.5597L39.0592 46.562H35.9092C35.73 46.5616 35.5529 46.6009 35.3907 46.6769C35.2284 46.7528 35.0849 46.8637 34.9705 47.0016C34.856 47.1394 34.7734 47.3009 34.7286 47.4743C34.6837 47.6478 34.6778 47.829 34.7111 48.0051L35.9549 54.639H58.7484L59.9922 48.0051C60.0255 47.829 60.0195 47.6478 59.9747 47.4743C59.9298 47.3009 59.8472 47.1394 59.7328 47.0016C59.6183 46.8637 59.4749 46.7528 59.3126 46.6769C59.1503 46.6009 58.9733 46.5616 58.7941 46.562H55.6441L54.5025 48.5597C54.377 48.779 54.2366 48.9895 54.0825 49.1897V49.2543H54.0314ZM46.0055 39.8311C46.0055 39.4741 45.8636 39.1317 45.6112 38.8792C45.3587 38.6268 45.0163 38.4849 44.6593 38.4849C44.3023 38.4849 43.9599 38.6268 43.7074 38.8792C43.4549 39.1317 43.3131 39.4741 43.3131 39.8311V48.0805C43.7689 48.4057 44.3147 48.5808 44.8747 48.5813H46.0055V39.8311ZM40.6208 43.8696V37.1388C40.6208 36.7817 40.4789 36.4393 40.2265 36.1869C39.974 35.9344 39.6316 35.7926 39.2746 35.7926C38.9176 35.7926 38.5752 35.9344 38.3227 36.1869C38.0702 36.4393 37.9284 36.7817 37.9284 37.1388V43.8696H40.6208H39.0592C39.6191 43.8701 40.165 44.0452 40.6208 44.3704V43.8696ZM36.4611 57.3314L37.2634 61.6176C37.3212 61.9266 37.4853 62.2055 37.7273 62.4062C37.9692 62.6068 38.2737 62.7164 38.588 62.7161H56.1152C56.4295 62.7164 56.7341 62.6068 56.976 62.4062C57.2179 62.2055 57.382 61.9266 57.4399 61.6176L58.2422 57.3314H36.4611Z" fill="black"/>
</g>
<defs>
<clipPath id="clip0_1211_579">
<rect width="35" height="35" fill="white" transform="translate(30 30.4084)"/>
</clipPath>
</defs>
</svg>
