<svg width="68" height="11" viewBox="0 0 68 11" fill="none" xmlns="http://www.w3.org/2000/svg">
<path d="M6 0L7.23483 3.80041H11.2308L7.99799 6.14919L9.23282 9.94959L6 7.60081L2.76718 9.94959L4.00201 6.14919L0.769189 3.80041H4.76517L6 0Z" fill="white"/>
<path d="M20 0L21.2348 3.80041H25.2308L21.998 6.14919L23.2328 9.94959L20 7.60081L16.7672 9.94959L18.002 6.14919L14.7692 3.80041H18.7652L20 0Z" fill="white"/>
<path d="M34 0L35.2348 3.80041H39.2308L35.998 6.14919L37.2328 9.94959L34 7.60081L30.7672 9.94959L32.002 6.14919L28.7692 3.80041H32.7652L34 0Z" fill="white"/>
<path d="M48 0L49.2348 3.80041H53.2308L49.998 6.14919L51.2328 9.94959L48 7.60081L44.7672 9.94959L46.002 6.14919L42.7692 3.80041H46.7652L48 0Z" fill="white"/>
<path d="M62 0L63.2348 3.80041H67.2308L63.998 6.14919L65.2328 9.94959L62 7.60081L58.7672 9.94959L60.002 6.14919L56.7692 3.80041H60.7652L62 0Z" fill="white"/>
</svg>
