<svg width="96" height="96" viewBox="0 0 96 96" fill="none" xmlns="http://www.w3.org/2000/svg">
<circle cx="47.5288" cy="47.5288" r="47.5288" fill="#E7A41F"/>
<path d="M39.1759 29.4195C37.7274 29.3096 36.3794 30.0282 36.0092 31.1632L34.6817 35.231C51.4985 35.6279 62.8745 44.673 63.5862 58.1474L68.6898 57.0067C70.0988 56.6915 70.9745 55.584 70.8069 54.4114C68.9354 41.3425 55.4808 30.6607 39.1759 29.4195ZM33.9351 37.5162L24.9854 64.9501C24.9203 65.1494 24.9216 65.359 24.989 65.5578C25.0565 65.7565 25.1877 65.9375 25.3695 66.0823C25.5513 66.2271 25.7773 66.3306 26.0246 66.3825C26.2719 66.4344 26.5318 66.4328 26.778 66.3778L60.7484 58.78C60.3657 46.1369 49.7166 37.6607 33.9351 37.519V37.5162ZM36.409 59.4819C35.8417 59.4819 35.2871 59.3463 34.8155 59.0921C34.3438 58.8379 33.9762 58.4766 33.7591 58.0539C33.542 57.6312 33.4852 57.166 33.5958 56.7173C33.7065 56.2686 33.9797 55.8564 34.3808 55.5328C34.7819 55.2093 35.293 54.989 35.8494 54.8997C36.4058 54.8105 36.9825 54.8563 37.5066 55.0314C38.0307 55.2065 38.4786 55.503 38.7938 55.8834C39.1089 56.2638 39.2772 56.7111 39.2772 57.1686C39.2772 57.7821 38.975 58.3705 38.4371 58.8044C37.8992 59.2382 37.1697 59.4819 36.409 59.4819ZM40.7113 48.4936C40.144 48.4936 39.5895 48.3579 39.1178 48.1038C38.6461 47.8496 38.2785 47.4883 38.0614 47.0656C37.8443 46.6429 37.7875 46.1777 37.8982 45.729C38.0088 45.2802 38.282 44.868 38.6831 44.5445C39.0843 44.221 39.5953 44.0007 40.1517 43.9114C40.7081 43.8222 41.2848 43.868 41.8089 44.0431C42.333 44.2181 42.7809 44.5147 43.0961 44.8951C43.4113 45.2755 43.5795 45.7228 43.5795 46.1803C43.5795 46.7938 43.2773 47.3822 42.7394 47.8161C42.2015 48.2499 41.472 48.4936 40.7113 48.4936ZM50.033 56.0119C49.4657 56.0119 48.9112 55.8763 48.4395 55.6221C47.9678 55.3679 47.6002 55.0066 47.3831 54.5839C47.166 54.1612 47.1092 53.696 47.2199 53.2473C47.3305 52.7986 47.6037 52.3864 48.0048 52.0628C48.406 51.7393 48.917 51.519 49.4734 51.4297C50.0298 51.3405 50.6065 51.3863 51.1306 51.5614C51.6547 51.7365 52.1026 52.033 52.4178 52.4134C52.733 52.7938 52.9012 53.2411 52.9012 53.6986C52.9012 54.3121 52.599 54.9005 52.0611 55.3344C51.5232 55.7682 50.7937 56.0119 50.033 56.0119Z" fill="black"/>
</svg>
